<svg id="visual" viewBox="0 0 4000 980" width="4000" height="980" xmlns="http://www.w3.org/2000/svg" xmlns:xlink="http://www.w3.org/1999/xlink" version="1.1"><rect x="0" y="0" width="4000" height="980" fill="#ffffff"></rect><path d="M0 929L129 960L258 891L387 908L516 900L645 958L774 923L903 958L1032 925L1161 888L1290 978L1419 898L1548 963L1677 963L1806 885L1935 916L2065 891L2194 954L2323 972L2452 918L2581 892L2710 899L2839 897L2968 938L3097 912L3226 933L3355 919L3484 950L3613 951L3742 923L3871 905L4000 966L4000 981L3871 981L3742 981L3613 981L3484 981L3355 981L3226 981L3097 981L2968 981L2839 981L2710 981L2581 981L2452 981L2323 981L2194 981L2065 981L1935 981L1806 981L1677 981L1548 981L1419 981L1290 981L1161 981L1032 981L903 981L774 981L645 981L516 981L387 981L258 981L129 981L0 981Z" fill="#0066FF" stroke-linecap="square" stroke-linejoin="bevel"></path></svg>